{"title":"Kingdom 2014 S03E02 720p HDTV x264-DAVIEW","magnet":"magnet:?xt=urn:btih:5b0c86b2437acfcb47952e23f71fa1a1db3be3a4&dn=Kingdom+2014+S03E02+720p+HDTV+x264-DAVIEW&tr=udp%3A%2F%2Ftracker.leechers-paradise.org%3A6969&tr=udp%3A%2F%2Fzer0day.ch%3A1337&tr=udp%3A%2F%2Fopen.demonii.com%3A1337&tr=udp%3A%2F%2Ftracker.coppersurfer.tk%3A6969&tr=udp%3A%2F%2Fexodus.desync.com%3A6969","uploader":"jmusiker","categoryP":"video","categoryS":"hd___tv_shows","size":"514946008","seeders":"195","leechers":"77","description":"Complete name                            : kingdom.2014.s03e02.720p.hdtv.x264-daview.mp4\r\nFormat                                   : MPEG-4\r\nFormat profile                           : Base Media\r\nCodec ID                                 : isom\r\nFile size                                : 491 MiB\r\nDuration                                 : 53mn 4s\r\nOverall bit rate mode                    : Variable\r\nOverall bit rate                         : 1 294 Kbps\r\n\r\nVideo\r\n\r\nID                                       : 1\r\nFormat                                   : AVC\r\nFormat/Info                              : Advanced Video Codec\r\nFormat profile                           : <a class=\"__cf_email__\" href=\"/cdn-cgi/l/email-protection\" data-cfemail=\"420a2b252a020e766c73\">[email&#xA0;protected]</a><script data-cfhash=\"f9e31\" type=\"text/javascript\">/* <![CDATA[ */!function(t,e,r,n,c,a,p){try{t=document.currentScript||function(){for(t=document.getElementsByTagName('script'),e=t.length;e--;)if(t[e].getAttribute('data-cfhash'))return t[e]}();if(t&&(c=t.previousSibling)){p=t.parentNode;if(a=c.getAttribute('data-cfemail')){for(e='',r='0x'+a.substr(0,2)|0,n=2;a.length-n;n+=2)e+='%'+('0'+('0x'+a.substr(n,2)^r).toString(16)).slice(-2);p.replaceChild(document.createTextNode(decodeURIComponent(e)),c)}p.removeChild(t)}}catch(u){}}()/* ]]> */</script>\r\nFormat settings, CABAC                   : Yes\r\nFormat settings, ReFrames                : 5 frames\r\nCodec ID                                 : avc1\r\nCodec ID/Info                            : Advanced Video Coding\r\nDuration                                 : 53mn 3s\r\nBit rate                                 : 1 105 Kbps\r\nMaximum bit rate                         : 5 152 Kbps\r\nWidth                                    : 1 280 pixels\r\nHeight                                   : 720 pixels\r\nDisplay aspect ratio                     : 16:9\r\nFrame rate mode                          : Constant\r\nFrame rate                               : 23.976 fps\r\nColor space                              : YUV\r\nChroma subsampling                       : 4:2:0\r\nBit depth                                : 8 bits\r\nScan type                                : Progressive\r\nBits/(Pixel*Frame)                       : 0.050\r\nStream size                              : 419 MiB (85%)\r\nWriting library                          : x264 core 150 r2833 df79067\r\nEncoded date                             : UTC 2017-06-07 03:34:31\r\nTagged date                              : UTC 2017-06-07 03:34:37\r\n\r\nAudio\r\n\r\nID                                       : 2\r\nFormat                                   : AAC\r\nFormat/Info                              : Advanced Audio Codec\r\nFormat profile                           : HE-AAC / LC\r\nCodec ID                                 : 40\r\nDuration                                 : 53mn 4s\r\nBit rate mode                            : Variable\r\nBit rate                                 : 186 Kbps\r\nMaximum bit rate                         : 230 Kbps\r\nChannel(s)                               : 6 channels\r\nChannel positions                        : Front: L C R, Side: L R, LFE\r\nSampling rate                            : 48.0 KHz / 24.0 KHz\r\nCompression mode                         : Lossy\r\nStream size                              : 70.4 MiB (14%)\r\nEncoded date                             : UTC 2017-06-07 03:34:37\r\nTagged date                              : UTC 2017-06-07 03:34:37","last_updated":"2017-06-08T12:02:41.920Z","parsed":{"xt":"urn:btih:5b0c86b2437acfcb47952e23f71fa1a1db3be3a4","dn":"Kingdom 2014 S03E02 720p HDTV x264-DAVIEW","tr":["udp://exodus.desync.com:6969","udp://open.demonii.com:1337","udp://tracker.coppersurfer.tk:6969","udp://tracker.leechers-paradise.org:6969","udp://zer0day.ch:1337"],"infoHash":"5b0c86b2437acfcb47952e23f71fa1a1db3be3a4","infoHashBuffer":{"type":"Buffer","data":[91,12,134,178,67,122,207,203,71,149,46,35,247,31,161,161,219,59,227,164]},"name":"Kingdom 2014 S03E02 720p HDTV x264-DAVIEW","announce":["udp://exodus.desync.com:6969","udp://open.demonii.com:1337","udp://tracker.coppersurfer.tk:6969","udp://tracker.leechers-paradise.org:6969","udp://zer0day.ch:1337"],"urlList":[]}}